<svg width="149" height="31" viewBox="0 0 149 31" fill="none" xmlns="http://www.w3.org/2000/svg">
<path d="M16.7152 14.334L16.9252 9.756H16.6732L11.9692 17.442H10.9612L6.04722 9.756H5.83722L6.08922 13.872V30H0.629219V0.599998H6.46722L11.5072 8.748H11.6752L16.6732 0.599998H22.4692V30H16.7152V14.334ZM27.9128 10.428C29.0328 9.924 30.3208 9.49 31.7768 9.126C33.2608 8.762 35.0108 8.58 37.0268 8.58C38.4828 8.58 39.7148 8.762 40.7228 9.126C41.7588 9.462 42.5848 9.952 43.2008 10.596C43.8448 11.24 44.3068 12.01 44.5868 12.906C44.8668 13.802 45.0068 14.81 45.0068 15.93C45.0068 17.358 44.9508 18.576 44.8388 19.584C44.7548 20.592 44.7128 21.488 44.7128 22.272C44.7128 22.86 44.7408 23.518 44.7968 24.246C44.8528 24.638 44.8948 25.016 44.9228 25.38H47.6528V30H40.6808L40.1348 27.144H39.9248C39.3648 28.012 38.5668 28.768 37.5308 29.412C36.4948 30.028 35.0948 30.336 33.3308 30.336C31.2308 30.336 29.5648 29.776 28.3328 28.656C27.1008 27.536 26.4848 26.052 26.4848 24.204C26.4848 23.028 26.6948 22.02 27.1148 21.18C27.5628 20.312 28.1928 19.612 29.0048 19.08C29.8448 18.52 30.8388 18.114 31.9868 17.862C33.1628 17.582 34.4648 17.442 35.8928 17.442C36.3968 17.442 36.9288 17.47 37.4888 17.526C38.0488 17.582 38.7348 17.638 39.5468 17.694C39.6028 17.414 39.6308 17.134 39.6308 16.854V16.056C39.6308 14.992 39.3228 14.236 38.7068 13.788C38.0908 13.312 37.1808 13.074 35.9768 13.074C34.5488 13.074 33.2608 13.256 32.1128 13.62C30.9648 13.984 29.9988 14.348 29.2148 14.712L27.9128 10.428ZM35.0948 25.842C36.4388 25.842 37.4468 25.604 38.1188 25.128C38.7908 24.624 39.2808 24.092 39.5888 23.532V21.012C39.3088 20.956 38.8888 20.9 38.3288 20.844C37.7688 20.76 37.1668 20.718 36.5228 20.718C35.9908 20.718 35.4588 20.774 34.9268 20.886C34.3948 20.97 33.9188 21.124 33.4988 21.348C33.0788 21.544 32.7428 21.81 32.4908 22.146C32.2388 22.482 32.1128 22.888 32.1128 23.364C32.1128 24.148 32.3368 24.764 32.7848 25.212C33.2608 25.632 34.0308 25.842 35.0948 25.842ZM54.1884 13.62H50.0304V9H54.1884V4.212L59.6484 2.658V9H70.6524V13.62H59.6484V19.626C59.6484 21.782 60.0544 23.35 60.8664 24.33C61.6784 25.282 62.8124 25.758 64.2684 25.758C65.0244 25.758 65.7104 25.674 66.3264 25.506C66.9424 25.31 67.4884 25.072 67.9644 24.792C68.4684 24.512 68.9164 24.204 69.3084 23.868C69.7284 23.532 70.1064 23.224 70.4424 22.944L72.9624 26.724C72.4864 27.284 71.8844 27.802 71.1564 28.278C70.4564 28.726 69.6864 29.132 68.8464 29.496C68.0344 29.832 67.1804 30.098 66.2844 30.294C65.3884 30.49 64.5064 30.588 63.6384 30.588C60.5024 30.588 58.1364 29.72 56.5404 27.984C54.9724 26.22 54.1884 23.434 54.1884 19.626V13.62ZM76.138 25.38H81.346V13.62H76.138V9H85.588L86.218 11.772H86.386C87.17 10.848 88.066 10.078 89.074 9.462C90.082 8.846 91.258 8.538 92.602 8.538C94.282 8.538 95.598 9.154 96.55 10.386C97.53 11.618 98.02 13.676 98.02 16.56H93.106C93.106 15.552 92.952 14.824 92.644 14.376C92.364 13.9 91.902 13.662 91.258 13.662C90.138 13.662 89.228 13.942 88.528 14.502C87.856 15.062 87.282 15.706 86.806 16.434V25.38H95.92V30H76.138V25.38ZM102.162 25.38H109.554V13.62H102.162V9H115.014V25.38H122.784V30H102.162V25.38ZM108.546 3.288C108.546 2.42 108.868 1.678 109.512 1.062C110.156 0.445999 111.052 0.137999 112.2 0.137999C113.376 0.137999 114.314 0.445999 115.014 1.062C115.714 1.678 116.064 2.42 116.064 3.288C116.064 4.184 115.714 4.926 115.014 5.514C114.314 6.074 113.376 6.354 112.2 6.354C111.052 6.354 110.156 6.074 109.512 5.514C108.868 4.926 108.546 4.184 108.546 3.288ZM133.729 19.164L126.421 9H132.931L137.677 16.014L142.633 9H148.555L141.373 19.08L148.975 30H142.633L137.299 22.272L131.881 30H125.917L133.729 19.164Z" fill="#FF2E00"/>
</svg>
